<?xml version="1.0" encoding="UTF-8"?>
<svg width="656px" height="135px" viewBox="0 0 656 135" version="1.1" xmlns="http://www.w3.org/2000/svg" xmlns:xlink="http://www.w3.org/1999/xlink">
    <title>widelogo-dark</title>
    <g id="widelogo-dark" stroke="none" stroke-width="1" fill="none" fill-rule="evenodd">
        <g id="Group-Copy" transform="translate(23.000000, 8.000000)">
            <path d="M83.475,8.50070346 L83.475,48.9906348 L45.85,79.6199019 L8.225,48.9906348 L8.225,8.50070346 L83.475,8.50070346 Z" id="Rectangle" stroke="#F5F3F4" stroke-width="16.45"></path>
            <polygon id="Path-6" fill="#E5383B" points="0 59.0757035 45.85 96.6308278 91.7 59.0757035 45.85 118.575703"></polygon>
        </g>
        <path d="M175.44,88 C186.8,88 196.8,81.52 196.8,71.12 C196.8,66.08 193.92,61.68 189.44,59.52 C195.68,56.72 199.76,51.28 199.76,45.04 C199.76,38.08 193.84,33.04 184.88,33.04 L156.56,33.04 L145.12,88 L175.44,88 Z M177.04,54.8 L165.68,54.8 L167.76,44.64 L180.08,44.64 C183.6,44.64 185.28,45.76 185.36,47.92 C185.36,51.84 181.84,54.8 177.04,54.8 Z M174.56,76.4 L161.2,76.4 L163.52,65.36 L177.76,65.36 C181.6,65.36 183.44,66.64 183.44,69.04 C183.44,73.28 179.68,76.4 174.56,76.4 Z M218.96,88.96 C224.32,88.96 229.04,86.8 232.8,83.28 L231.84,88 L245.36,88 L254,46.64 L240.48,46.64 L239.2,52.88 C236.64,48.4 232.08,45.68 226.32,45.68 C213.04,45.68 203.12,58.4 203.12,72.08 C203.12,81.92 209.44,88.96 218.96,88.96 Z M223.6,77.68 C219.12,77.68 216.16,74.8 216.16,70.64 C216.16,63.44 222.32,56.96 229.52,56.96 C233.76,56.96 236.64,59.76 236.64,63.84 C236.64,64.48 236.56,65.04 236.48,65.68 L236.16,67.28 C234.64,72.88 229.6,77.68 223.6,77.68 Z M272.08,88.96 C282.96,88.96 291.6,82.96 291.6,73.76 C291.6,65.92 285.2,64 277.76,62.16 C273.2,60.96 272.24,60.24 272.24,59.28 C272.24,57.2 275.04,55.12 278.8,55.12 C281.92,55.12 286.24,56.88 289.28,59.12 L295.12,51.28 C290.8,48.16 285.2,45.68 278.8,45.68 C268.4,45.68 260,51.92 260,61.12 C260,68.48 265.92,70.32 273.76,72.16 C278.64,73.44 279.36,74.24 279.36,75.12 C279.36,77.44 276.64,79.28 272.64,79.28 C268.72,79.28 263.36,77.52 259.92,74.64 L253.6,82.4 C258,86.32 264.72,88.96 272.08,88.96 Z M315.76,88.96 C321.6,88.96 329.12,86.72 333.6,82.88 L326.96,74.56 C323.92,76.88 319.76,78.64 315.84,78.64 C311.36,78.64 308.64,75.68 308.64,71.04 L308.64,70.72 L318.24,70.72 C330.96,71.04 338.56,65.84 338.56,56.96 C338.56,50.24 331.76,45.68 322.64,45.68 C308.48,45.68 297.12,57.2 297.12,71.28 C297.12,81.84 304.4,88.96 315.76,88.96 Z M319.76,63.12 L310.88,63.12 C313.28,59.04 317.44,56 322.24,56 C325.2,56 327.44,57.12 327.44,58.88 C327.36,61.6 324.56,63.12 319.76,63.12 Z M355.44,88 L359.12,70.8 L365.76,70.8 L376.24,88 L391.44,88 L380.16,69.36 C389.44,66.32 395.92,58.56 395.92,48.8 C395.92,39.44 388.88,33.04 378.32,33.04 L353.2,33.04 L341.76,88 L355.44,88 Z M372,58.32 L361.68,58.32 L364.32,45.52 L375.52,45.52 C379.52,45.52 382,47.2 382,49.84 C382,54.08 377.12,58.32 372,58.32 Z M414.48,88.96 C419.12,88.96 423.36,87.28 426.4,84.32 L425.6,88 L439.2,88 L447.84,46.64 L434.24,46.64 L429.12,71.12 C427.84,74.64 423.92,77.68 419.76,77.68 C416.8,77.68 414.88,75.84 414.88,72.72 L414.880981,72.590441 L414.880981,72.590441 L414.88294,72.50299 C414.9236,71.1044 415.448,68.908 420.16,46.64 L407.12,46.64 C402.4608,68.9168 401.511488,72.64416 401.378351,75.4254986 L401.370725,75.6076995 C401.369641,75.6379002 401.368648,75.6680333 401.367741,75.6981222 L401.361832,75.9683613 C401.360576,76.058464 401.36,76.1488 401.36,76.24 C401.36,83.68 406.4,88.96 414.48,88.96 Z M463.68,88 L468.8,63.52 C470.08,60 474,56.96 478.16,56.96 C481.12,56.96 483.04,58.8 483.04,61.92 L483.039019,62.049559 L483.039019,62.049559 L483.03706,62.13701 C482.9964,63.5356 482.472,65.732 477.76,88 L490.8,88 C495.4592,65.7232 496.408512,61.99584 496.541649,59.2145014 L496.549275,59.0323005 C496.550359,59.0020998 496.551352,58.9719667 496.552259,58.9418778 L496.558168,58.6716387 C496.558587,58.6416045 496.55893,58.6115443 496.559201,58.5814349 L496.56,58.4 L496.56,58.4 C496.56,50.96 491.52,45.68 483.44,45.68 C478.8,45.68 474.56,47.36 471.52,50.32 L472.32,46.64 L458.72,46.64 L450.08,88 L463.68,88 Z M514.48,88 L519.6,63.52 C520.88,60 524.8,56.96 528.96,56.96 C531.92,56.96 533.84,58.8 533.84,61.92 L533.8399,61.9631505 L533.8399,61.9631505 L533.839019,62.049559 L533.839019,62.049559 L533.83706,62.13701 C533.7964,63.5356 533.272,65.732 528.56,88 L541.6,88 C546.2592,65.7232 547.208512,61.99584 547.341649,59.2145014 L547.349275,59.0323005 C547.350359,59.0020998 547.351352,58.9719667 547.352259,58.9418778 L547.358168,58.6716387 C547.358587,58.6416045 547.35893,58.6115443 547.359201,58.5814349 L547.36,58.4 L547.36,58.4 C547.36,50.96 542.32,45.68 534.24,45.68 C529.6,45.68 525.36,47.36 522.32,50.32 L523.12,46.64 L509.52,46.64 L500.88,88 L514.48,88 Z M571.84,88.96 C577.68,88.96 585.2,86.72 589.68,82.88 L583.04,74.56 C580,76.88 575.84,78.64 571.92,78.64 C567.44,78.64 564.72,75.68 564.72,71.04 L564.72,70.72 L574.32,70.72 C587.04,71.04 594.64,65.84 594.64,56.96 C594.64,50.24 587.84,45.68 578.72,45.68 C564.56,45.68 553.2,57.2 553.2,71.28 C553.2,81.84 560.48,88.96 571.84,88.96 Z M575.84,63.12 L566.96,63.12 C569.36,59.04 573.52,56 578.32,56 C581.28,56 583.52,57.12 583.52,58.88 C583.44,61.6 580.64,63.12 575.84,63.12 Z M610.48,88 L614.4,69.2 C616.24,61.92 622.72,56.96 630.88,56.96 L632.4,45.68 C626.56,45.68 621.36,48.56 617.68,53.44 L619.12,46.64 L605.52,46.64 L596.88,88 L610.48,88 Z" id="BaseRunner" fill="#F5F3F4" fill-rule="nonzero"></path>
    </g>
</svg>